<svg width="550" height="550" viewBox="0 0 550 550" fill="none" xmlns="http://www.w3.org/2000/svg">
<path d="M364.393 131.004C365.896 131.801 367.365 132.657 368.801 133.57C370.237 134.483 371.04 134.186 371.21 132.676C371.379 131.167 371.526 129.567 371.65 127.874C371.774 126.182 372.373 124.691 373.448 123.402C374.522 122.113 375.859 121.176 377.456 120.592C379.054 120.008 380.687 119.553 382.356 119.227C384.024 118.9 385.706 118.669 387.4 118.533C389.094 118.398 390.789 118.279 392.486 118.177C394.183 118.074 395.88 117.993 397.579 117.932C399.278 117.872 400.979 117.873 402.68 117.936C404.381 118 406.081 118.004 407.779 117.948C409.477 117.892 411.176 117.863 412.876 117.86C414.576 117.856 416.277 117.829 417.979 117.778C419.682 117.727 421.38 117.793 423.074 117.976C424.767 118.159 426.46 118.326 428.153 118.479C429.845 118.631 431.542 118.742 433.243 118.812C434.944 118.882 436.641 119 438.335 119.167C440.029 119.333 441.717 119.547 443.399 119.809C445.082 120.07 446.747 120.421 448.394 120.861C450.041 121.3 451.707 121.651 453.391 121.913C455.075 122.175 456.723 122.583 458.334 123.137C459.946 123.691 461.58 124.167 463.236 124.565C464.892 124.963 466.527 125.433 468.141 125.974C469.756 126.516 471.327 127.166 472.853 127.925C474.38 128.684 475.919 129.41 477.47 130.103C479.021 130.796 480.526 131.577 481.985 132.448C483.444 133.318 484.944 134.121 486.486 134.855C488.028 135.59 489.45 136.511 490.752 137.617C492.054 138.723 493.414 139.747 494.833 140.689C496.251 141.632 497.577 142.69 498.809 143.864C500.041 145.038 501.186 146.289 502.244 147.617C503.301 148.945 504.326 150.296 505.318 151.67C506.31 153.044 507.31 154.417 508.319 155.79C509.328 157.163 510.164 158.634 510.829 160.203C511.493 161.772 512.227 163.31 513.032 164.817C513.837 166.325 514.458 167.903 514.896 169.552C515.334 171.2 515.767 172.849 516.195 174.497C516.622 176.145 516.981 177.808 517.272 179.488C517.562 181.168 517.75 182.859 517.836 184.561C517.922 186.263 517.926 187.963 517.849 189.661C517.771 191.359 517.686 193.054 517.594 194.746C517.501 196.438 517.428 198.137 517.373 199.842C517.319 201.548 517.148 203.241 516.861 204.921C516.574 206.602 516.185 208.258 515.693 209.891C515.202 211.523 514.734 213.161 514.289 214.803C513.845 216.445 513.291 218.05 512.628 219.618C511.965 221.186 511.371 222.78 510.845 224.401C510.319 226.021 509.683 227.596 508.938 229.126C508.192 230.656 507.409 232.165 506.59 233.655C505.771 235.145 505.019 236.672 504.335 238.237C503.65 239.801 502.845 241.298 501.919 242.728C500.992 244.158 500.046 245.572 499.079 246.972C498.113 248.372 497.176 249.792 496.269 251.233C495.363 252.673 494.379 254.059 493.318 255.389C492.257 256.72 491.223 258.071 490.217 259.443C489.211 260.815 488.193 262.178 487.164 263.531C486.134 264.885 485.079 266.219 483.999 267.533C482.919 268.847 481.818 270.144 480.696 271.423C479.574 272.702 478.464 273.991 477.365 275.291C476.267 276.591 475.138 277.864 473.98 279.111C472.822 280.359 471.649 281.591 470.461 282.81C469.273 284.028 468.081 285.244 466.887 286.457C465.692 287.671 464.502 288.878 463.316 290.079C462.129 291.28 461.011 292.553 459.961 293.896C458.911 295.24 457.77 296.503 456.54 297.685C455.31 298.867 454.014 299.97 452.652 300.993C451.29 302.016 449.964 303.081 448.672 304.187C447.38 305.293 446.112 306.424 444.869 307.582C443.625 308.739 442.39 309.901 441.163 311.07C439.936 312.239 438.618 313.263 437.21 314.142C435.801 315.021 434.667 316.041 433.807 317.202C432.948 318.363 431.891 319.519 430.637 320.671C429.384 321.822 428.062 322.889 426.673 323.871C425.284 324.852 423.875 325.804 422.445 326.724C421.015 327.645 419.601 328.589 418.203 329.556C416.805 330.523 415.403 331.485 413.998 332.442C412.593 333.399 411.213 334.392 409.86 335.422C408.507 336.453 407.116 337.431 405.686 338.356C404.257 339.281 402.88 340.279 401.554 341.351C400.229 342.422 398.83 343.386 397.357 344.241C395.884 345.096 394.43 345.978 392.993 346.887C391.556 347.795 390.125 348.713 388.698 349.639C387.272 350.566 385.819 351.449 384.34 352.288C382.861 353.127 381.389 353.977 379.923 354.839C378.458 355.702 377.003 356.58 375.557 357.475C374.11 358.37 372.624 359.196 371.098 359.954C369.572 360.712 368.11 361.58 366.713 362.558C365.315 363.536 363.865 364.424 362.363 365.222C360.86 366.02 359.385 366.866 357.936 367.76C356.488 368.654 355.006 369.486 353.488 370.256C351.971 371.025 350.465 371.816 348.971 372.627C347.476 373.438 345.975 374.236 344.467 375.021C342.959 375.807 341.454 376.599 339.953 377.396C338.451 378.194 336.948 378.99 335.444 379.784C333.94 380.577 332.411 381.322 330.859 382.018C329.306 382.714 327.747 383.395 326.181 384.06C324.615 384.725 323.083 385.462 321.585 386.273C320.086 387.083 318.565 387.846 317.021 388.56C315.478 389.274 313.91 389.933 312.318 390.536C310.727 391.139 309.145 391.764 307.573 392.412C306.001 393.06 304.41 393.656 302.798 394.201C301.186 394.746 299.595 395.345 298.025 395.997C296.456 396.65 294.871 397.263 293.271 397.836C291.671 398.41 290.093 399.04 288.536 399.728C286.98 400.415 285.431 401.116 283.891 401.828C282.351 402.541 280.773 403.173 279.157 403.723C277.541 404.273 275.95 404.879 274.386 405.54C272.821 406.202 271.237 406.814 269.634 407.378C268.031 407.941 266.435 408.522 264.844 409.119C263.253 409.716 261.654 410.289 260.046 410.839C258.438 411.388 256.835 411.955 255.237 412.54C253.639 413.125 252.012 413.615 250.356 414.01C248.699 414.406 247.052 414.829 245.413 415.279C243.774 415.729 242.152 416.239 240.547 416.81C238.942 417.381 237.326 417.913 235.698 418.405C234.071 418.897 232.419 419.293 230.742 419.594C229.066 419.895 227.412 420.283 225.78 420.76C224.147 421.237 222.503 421.667 220.846 422.048C219.189 422.43 217.537 422.829 215.889 423.244C214.241 423.659 212.589 424.059 210.934 424.443C209.279 424.828 207.636 425.271 206.006 425.775C204.375 426.278 202.712 426.626 201.017 426.82C199.321 427.014 197.653 427.351 196.015 427.831C194.376 428.31 192.713 428.666 191.028 428.9C189.342 429.134 187.659 429.385 185.98 429.654C184.301 429.922 182.618 430.163 180.931 430.375C179.244 430.587 177.559 430.811 175.876 431.046C174.193 431.282 172.505 431.481 170.813 431.645C169.121 431.808 167.434 432.009 165.75 432.248C164.067 432.487 162.378 432.678 160.684 432.822C158.991 432.966 157.299 433.14 155.609 433.343C153.919 433.546 152.222 433.628 150.517 433.588C148.813 433.549 147.114 433.624 145.42 433.815C143.725 434.006 142.028 434.066 140.327 433.995C138.626 433.924 136.925 433.907 135.225 433.943C133.524 433.98 131.824 433.969 130.125 433.912C128.425 433.855 126.728 433.75 125.034 433.596C123.34 433.443 121.646 433.305 119.95 433.183C118.255 433.061 116.561 432.925 114.867 432.773C113.173 432.621 111.48 432.451 109.788 432.261C108.096 432.072 106.41 431.837 104.73 431.558C103.05 431.278 101.393 430.891 99.7597 430.397C98.126 429.902 96.4689 429.51 94.7884 429.221C93.1079 428.932 91.4644 428.503 89.8579 427.937C88.2514 427.37 86.6386 426.827 85.0196 426.309C83.4005 425.791 81.7896 425.246 80.1867 424.673C78.5837 424.101 77.0293 423.417 75.5233 422.62C74.0173 421.824 72.4861 421.082 70.9295 420.395C69.373 419.709 67.8567 418.942 66.3806 418.094C64.9046 417.246 63.4923 416.301 62.1439 415.258C60.7954 414.215 59.3859 413.26 57.9154 412.393C56.4449 411.527 55.0561 410.547 53.7488 409.455C52.4415 408.363 51.1551 407.247 49.8895 406.107C48.6239 404.968 47.4509 403.739 46.3704 402.423C45.2899 401.106 44.2143 399.791 43.1435 398.478C42.0727 397.165 41.0412 395.819 40.0491 394.441C39.057 393.064 38.1747 391.618 37.4022 390.106C36.6297 388.594 35.9038 387.061 35.2244 385.506C34.5451 383.951 33.915 382.372 33.3342 380.767C32.7533 379.162 32.3739 377.512 32.196 375.815C32.018 374.119 31.8619 372.425 31.7276 370.734C31.5934 369.043 31.4302 367.352 31.2382 365.661C31.0462 363.971 31.0081 362.277 31.124 360.58C31.2399 358.883 31.3603 357.189 31.485 355.498C31.6097 353.808 31.7304 352.114 31.8471 350.418C31.9637 348.722 32.1469 347.032 32.3966 345.348C32.6463 343.665 33.015 342.007 33.5026 340.375C33.9903 338.743 34.4496 337.105 34.8807 335.462C35.3117 333.819 35.7861 332.188 36.3038 330.568C36.8215 328.948 37.3813 327.342 37.9831 325.75C38.585 324.157 39.3065 322.62 40.1477 321.136C40.9889 319.653 41.7392 318.125 42.3987 316.554C43.0581 314.982 43.8424 313.476 44.7515 312.037C45.6606 310.598 46.5903 309.173 47.5405 307.763C48.4906 306.353 49.4731 304.964 50.4879 303.596C51.5027 302.228 52.4135 300.793 53.2202 299.291C54.027 297.789 54.9237 296.345 55.9104 294.958C56.8971 293.572 57.8687 292.176 58.8254 290.77C59.782 289.364 60.7569 287.97 61.7502 286.59C62.7435 285.209 63.7656 283.85 64.8165 282.513C65.8674 281.175 66.9478 279.862 68.0576 278.574C69.1674 277.286 70.2668 275.989 71.3558 274.685C72.4448 273.38 73.5901 272.127 74.7916 270.925C75.9931 269.723 77.1875 268.515 78.3747 267.302C79.5619 266.088 80.7718 264.896 82.0042 263.725C83.2367 262.554 84.5207 261.442 85.8562 260.39C87.1917 259.338 88.6507 258.602 90.2332 258.184C91.8157 257.766 93.4421 257.609 95.1124 257.715C96.7827 257.82 98.3334 258.275 99.7643 259.082C101.195 259.888 102.38 260.489 103.319 260.885C104.257 261.281 104.902 260.667 105.252 259.042C105.602 257.416 105.844 255.755 105.98 254.056C106.115 252.357 106.388 250.68 106.798 249.023C107.208 247.367 107.561 245.702 107.857 244.031C108.152 242.359 108.479 240.693 108.837 239.033C109.195 237.372 109.604 235.724 110.064 234.089C110.524 232.453 110.938 230.803 111.305 229.139C111.671 227.475 112.104 225.83 112.603 224.204C113.102 222.578 113.642 220.965 114.223 219.365C114.804 217.766 115.37 216.161 115.922 214.551C116.473 212.941 117.118 211.369 117.855 209.834C118.593 208.299 119.324 206.764 120.049 205.228C120.774 203.693 121.536 202.176 122.336 200.679C123.136 199.181 123.963 197.697 124.818 196.228C125.672 194.759 126.51 193.281 127.332 191.794C128.153 190.307 128.961 188.812 129.757 187.309C130.552 185.806 131.422 184.345 132.365 182.928C133.307 181.511 134.248 180.095 135.186 178.678C136.124 177.261 137.123 175.887 138.182 174.557C139.241 173.226 140.286 171.886 141.317 170.535C142.347 169.185 143.368 167.825 144.379 166.456C145.39 165.087 146.561 163.863 147.893 162.786C149.225 161.709 150.541 160.684 151.842 159.71C153.142 158.737 154.203 157.518 155.025 156.055C155.847 154.592 156.9 153.355 158.185 152.344C159.471 151.333 160.514 150.343 161.315 149.375C162.116 148.407 163.173 147.385 164.486 146.31C165.798 145.235 167.12 144.171 168.452 143.118C169.784 142.065 171.132 141.033 172.497 140.023C173.861 139.012 175.229 138.005 176.599 137C177.97 135.996 179.347 134.998 180.731 134.008C182.115 133.018 183.531 132.076 184.979 131.183C186.427 130.289 187.897 129.434 189.389 128.616C190.881 127.799 192.394 127.023 193.929 126.289C195.463 125.555 196.992 124.812 198.515 124.062C200.038 123.311 201.537 122.504 203.011 121.643C204.485 120.781 206.03 120.074 207.643 119.521C209.257 118.968 210.831 118.322 212.366 117.58C213.901 116.839 215.473 116.191 217.081 115.637C218.689 115.084 220.278 114.476 221.847 113.816C223.416 113.155 225.028 112.617 226.681 112.2C228.335 111.783 229.961 111.281 231.56 110.694C233.159 110.108 234.794 109.651 236.465 109.324C238.136 108.997 239.794 108.618 241.441 108.188C243.087 107.757 244.744 107.371 246.412 107.031C248.081 106.691 249.768 106.488 251.475 106.424C253.182 106.359 254.879 106.233 256.566 106.045C258.252 105.857 259.94 105.659 261.629 105.45C263.318 105.241 265.012 105.097 266.711 105.018C268.411 104.939 270.112 104.871 271.814 104.814C273.516 104.757 275.214 104.833 276.91 105.043C278.605 105.252 280.304 105.356 282.007 105.353C283.71 105.35 285.405 105.462 287.091 105.688C288.778 105.915 290.464 106.134 292.149 106.347C293.835 106.559 295.524 106.754 297.217 106.93C298.909 107.106 300.587 107.375 302.249 107.738C303.911 108.101 305.579 108.436 307.251 108.743C308.923 109.05 310.582 109.421 312.226 109.855C313.87 110.29 315.52 110.701 317.176 111.089C318.832 111.477 320.477 111.905 322.113 112.374C323.748 112.843 325.366 113.364 326.968 113.937C328.57 114.509 330.174 115.075 331.779 115.635C333.385 116.196 334.985 116.77 336.582 117.36C338.178 117.949 339.731 118.639 341.242 119.43C342.753 120.221 344.285 120.958 345.84 121.642C347.394 122.326 348.936 123.036 350.467 123.771C351.998 124.507 353.55 125.204 355.126 125.862C356.701 126.521 358.188 127.34 359.587 128.319C360.986 129.299 361.761 129.793 361.912 129.799C362.064 129.806 362.891 130.207 364.393 131.004ZM386.283 138.422C384.588 138.559 382.918 138.815 381.272 139.189C379.626 139.564 378.74 140.293 378.613 141.376C378.487 142.46 379.083 143.538 380.404 144.609C381.724 145.681 383.051 146.746 384.384 147.804C385.717 148.862 387.016 149.96 388.282 151.098C389.547 152.236 390.795 153.393 392.026 154.569C393.257 155.744 394.417 156.988 395.507 158.301C396.597 159.613 397.76 160.855 398.997 162.025C400.234 163.196 401.404 164.428 402.508 165.722C403.611 167.017 404.769 168.259 405.982 169.45C407.195 170.64 408.388 171.755 409.561 172.795C410.733 173.834 411.875 173.72 412.985 172.453C414.095 171.185 415.378 170.135 416.833 169.301C418.289 168.467 419.842 167.902 421.494 167.605C423.145 167.309 424.774 167.412 426.381 167.913C427.988 168.415 429.504 169.125 430.928 170.043C432.353 170.961 433.757 171.911 435.142 172.893C436.528 173.875 437.896 174.901 439.248 175.971C440.6 177.041 441.694 177.957 442.531 178.721C443.368 179.484 444.394 180.245 445.607 181.002C446.821 181.76 447.735 182.933 448.35 184.52C448.965 186.107 449.696 187.639 450.543 189.115C451.391 190.592 452.231 192.075 453.064 193.566C453.897 195.057 454.533 196.628 454.972 198.279C455.412 199.931 455.773 201.598 456.056 203.28C456.339 204.962 456.485 206.655 456.495 208.359C456.505 210.063 456.543 211.765 456.608 213.465C456.673 215.165 456.696 216.865 456.678 218.564C456.66 220.263 456.571 221.959 456.412 223.651C456.252 225.344 456.146 227.042 456.094 228.746C456.042 230.45 455.765 232.117 455.265 233.748C454.765 235.378 454.324 237.021 453.943 238.677C453.562 240.333 453.09 241.964 452.528 243.571C451.966 245.178 451.333 246.757 450.63 248.309C449.928 249.861 449.123 251.359 448.216 252.802C447.309 254.245 446.447 255.712 445.631 257.203C444.814 258.694 443.972 260.171 443.103 261.634C442.234 263.096 441.335 264.54 440.405 265.966C439.476 267.392 438.523 268.802 437.548 270.198C436.573 271.593 435.552 272.954 434.485 274.28C433.418 275.607 432.345 276.927 431.265 278.241C430.186 279.554 429.11 280.872 428.039 282.192C426.968 283.513 425.851 284.794 424.688 286.036C423.526 287.278 422.35 288.505 421.161 289.72C419.971 290.934 418.808 292.173 417.671 293.437C416.533 294.701 415.38 295.95 414.21 297.186C413.041 298.421 411.844 299.63 410.62 300.811C409.396 301.992 408.126 303.123 406.81 304.203C405.494 305.283 404.188 306.373 402.892 307.473C401.596 308.573 400.354 309.735 399.166 310.961C397.978 312.187 396.688 313.294 395.298 314.281C393.907 315.268 392.574 316.324 391.298 317.45C390.022 318.575 388.746 319.699 387.471 320.822C386.196 321.944 384.894 323.036 383.565 324.097C382.236 325.159 381.508 326.158 381.379 327.094C381.25 328.029 381.995 328.375 383.615 328.13C385.234 327.885 386.715 327.238 388.06 326.19C389.405 325.142 390.726 324.065 392.023 322.961C393.32 321.856 394.658 320.806 396.037 319.811C397.416 318.816 398.764 317.78 400.08 316.702C401.397 315.624 402.746 314.589 404.128 313.597C405.509 312.604 406.933 311.671 408.399 310.798C409.866 309.925 411.268 308.963 412.607 307.913C413.946 306.862 415.283 305.812 416.617 304.764C417.952 303.715 419.272 302.649 420.577 301.566C421.882 300.483 423.131 299.338 424.325 298.131C425.519 296.923 426.77 295.774 428.078 294.682C429.386 293.59 430.681 292.485 431.962 291.367C433.243 290.25 434.488 289.092 435.698 287.894C436.907 286.697 438.101 285.483 439.278 284.254C440.455 283.025 441.695 281.861 442.998 280.763C444.302 279.666 445.507 278.468 446.613 277.171C447.72 275.874 448.895 274.645 450.138 273.484C451.382 272.323 452.616 271.151 453.84 269.968C455.065 268.785 456.21 267.528 457.275 266.199C458.339 264.869 459.434 263.567 460.559 262.293C461.683 261.018 462.755 259.7 463.773 258.337C464.792 256.975 465.87 255.66 467.008 254.395C468.147 253.129 469.213 251.806 470.207 250.427C471.202 249.048 472.217 247.684 473.253 246.335C474.288 244.987 475.236 243.576 476.095 242.105C476.954 240.634 477.914 239.23 478.975 237.893C480.036 236.556 480.969 235.137 481.772 233.635C482.576 232.133 483.411 230.649 484.277 229.184C485.144 227.719 486.001 226.254 486.849 224.787C487.696 223.32 488.569 221.862 489.466 220.411C490.363 218.961 491.135 217.448 491.781 215.871C492.428 214.295 493.009 212.696 493.524 211.073C494.04 209.45 494.524 207.818 494.978 206.177C495.432 204.536 495.745 202.868 495.916 201.173C496.088 199.478 496.339 197.793 496.671 196.118C497.003 194.442 497.13 192.753 497.053 191.049C496.975 189.346 496.837 187.652 496.638 185.968C496.438 184.284 496.201 182.606 495.925 180.935C495.65 179.264 495.209 177.635 494.602 176.049C493.995 174.463 493.312 172.911 492.552 171.393C491.793 169.874 490.961 168.396 490.058 166.959C489.155 165.521 488.16 164.15 487.074 162.846C485.987 161.543 484.839 160.299 483.627 159.116C482.416 157.932 481.167 156.79 479.881 155.688C478.595 154.587 477.266 153.536 475.895 152.536C474.523 151.536 473.09 150.637 471.594 149.837C470.098 149.037 468.594 148.242 467.082 147.453C465.57 146.663 464.002 146.011 462.377 145.497C460.751 144.983 459.126 144.478 457.501 143.982C455.875 143.486 454.243 143.014 452.605 142.565C450.966 142.116 449.32 141.694 447.667 141.299C446.014 140.904 444.348 140.574 442.669 140.31C440.99 140.045 439.306 139.815 437.619 139.621C435.931 139.427 434.251 139.16 432.579 138.821C430.907 138.482 429.217 138.324 427.51 138.348C425.803 138.373 424.105 138.254 422.417 137.992C420.729 137.73 419.034 137.648 417.33 137.745C415.626 137.842 413.925 137.819 412.227 137.676C410.528 137.533 408.829 137.485 407.129 137.53C405.429 137.576 403.73 137.669 402.034 137.808C400.337 137.947 398.637 137.988 396.934 137.932C395.231 137.876 393.533 137.936 391.839 138.112C390.145 138.289 389.22 138.351 389.062 138.297C388.905 138.243 387.979 138.285 386.283 138.422ZM423.196 191.577C422.906 190.842 422.722 190.494 422.644 190.533C422.567 190.572 422.668 190.741 422.948 191.041C423.229 191.34 423.413 191.688 423.5 192.084C423.588 192.48 423.487 192.311 423.196 191.577ZM424.489 195.637C424.763 197.32 425.181 198.967 425.745 200.576C426.309 202.185 426.861 203.795 427.399 205.405C427.938 207.016 428.258 208.67 428.361 210.367C428.463 212.064 428.48 213.76 428.412 215.453C428.343 217.147 428.237 218.843 428.093 220.542C427.949 222.242 427.611 223.902 427.078 225.522C426.546 227.143 426.059 228.776 425.618 230.423C425.176 232.07 424.536 233.636 423.695 235.121C422.855 236.606 422.076 238.12 421.358 239.661C420.641 241.202 419.83 242.693 418.926 244.133C418.021 245.574 417.023 246.946 415.93 248.249C414.837 249.553 413.768 250.872 412.722 252.208C411.676 253.543 410.573 254.83 409.414 256.069C408.254 257.308 407.115 258.571 405.996 259.858C404.878 261.144 403.783 262.447 402.713 263.765C401.642 265.083 400.516 266.353 399.336 267.575C398.155 268.796 396.997 270.039 395.862 271.305C394.727 272.571 393.568 273.816 392.388 275.04C391.207 276.265 389.988 277.45 388.732 278.597C387.476 279.743 386.196 280.863 384.893 281.955C383.589 283.047 382.271 284.121 380.937 285.175C379.604 286.229 378.299 287.317 377.022 288.44C375.745 289.563 374.451 290.666 373.14 291.749C371.829 292.833 370.463 293.844 369.043 294.783C367.623 295.722 366.261 296.741 364.957 297.84C363.654 298.939 362.28 299.94 360.836 300.841C359.392 301.742 357.985 302.699 356.615 303.709C355.245 304.72 353.816 305.64 352.327 306.468C350.838 307.296 349.377 308.168 347.945 309.083C346.513 309.999 345.05 310.862 343.555 311.674C342.06 312.486 340.619 313.389 339.232 314.384C337.845 315.38 336.409 316.292 334.924 317.121C333.438 317.95 331.927 318.731 330.39 319.464C328.853 320.197 327.341 320.977 325.856 321.802C324.37 322.628 322.867 323.421 321.346 324.181C319.825 324.941 318.318 325.728 316.824 326.54C315.331 327.353 313.832 328.156 312.329 328.951C310.825 329.745 309.32 330.536 307.812 331.323C306.305 332.111 304.762 332.823 303.183 333.46C301.604 334.098 300.042 334.77 298.496 335.476C296.95 336.182 295.424 336.929 293.917 337.717C292.41 338.505 290.897 339.283 289.379 340.051C287.861 340.82 286.323 341.545 284.765 342.228C283.208 342.911 281.643 343.576 280.07 344.223C278.497 344.87 276.914 345.493 275.322 346.09C273.729 346.688 272.168 347.363 270.638 348.116C269.109 348.869 267.525 349.486 265.887 349.965C264.25 350.445 262.651 351.027 261.093 351.712C259.534 352.397 257.944 352.994 256.321 353.504C254.697 354.014 253.077 354.53 251.46 355.052C249.843 355.574 248.225 356.094 246.608 356.614C244.991 357.133 243.388 357.702 241.8 358.321C240.212 358.94 238.604 359.494 236.975 359.981C235.345 360.469 233.697 360.888 232.03 361.236C230.364 361.584 228.71 361.979 227.068 362.419C225.427 362.86 223.785 363.303 222.143 363.75C220.501 364.197 218.848 364.598 217.184 364.953C215.52 365.308 213.846 365.605 212.161 365.845C210.476 366.085 208.791 366.314 207.104 366.531C205.418 366.748 203.739 367.015 202.068 367.333C200.396 367.65 198.711 367.864 197.013 367.973C195.315 368.083 193.619 368.192 191.924 368.3C190.229 368.408 188.538 368.598 186.85 368.87C185.162 369.141 183.466 369.216 181.763 369.094C180.059 368.972 178.357 368.972 176.655 369.094C174.954 369.215 173.256 369.186 171.562 369.005C169.868 368.825 168.175 368.656 166.484 368.497C164.793 368.339 163.098 368.208 161.398 368.106C159.698 368.003 158.017 367.77 156.353 367.408C154.69 367.046 153.023 366.71 151.353 366.399C149.682 366.089 148.012 365.764 146.343 365.426C144.673 365.089 143.071 364.544 141.535 363.792C139.999 363.04 138.466 362.299 136.937 361.569C135.407 360.839 133.877 360.098 132.346 359.347C130.815 358.596 129.431 357.635 128.195 356.464C126.958 355.293 125.847 354.027 124.861 352.665C123.875 351.304 123.01 349.864 122.265 348.347C121.52 346.83 120.734 345.326 119.908 343.836C119.083 342.346 118.22 341.171 117.32 340.31C116.42 339.449 115.69 339.806 115.129 341.382C114.568 342.957 114.46 344.577 114.804 346.24C115.148 347.903 115.626 349.528 116.239 351.112C116.851 352.697 117.529 354.256 118.273 355.788C119.017 357.32 119.934 358.741 121.023 360.049C122.113 361.358 123.211 362.659 124.319 363.953C125.426 365.247 126.741 366.289 128.262 367.078C129.784 367.868 131.291 368.664 132.784 369.466C134.278 370.268 135.8 371.013 137.351 371.7C138.902 372.388 140.454 373.085 142.008 373.791C143.561 374.498 145.171 375.032 146.838 375.395C148.505 375.758 150.159 376.164 151.8 376.614C153.44 377.064 155.094 377.461 156.762 377.805C158.429 378.149 160.108 378.428 161.798 378.64C163.488 378.852 165.182 379.006 166.882 379.103C168.581 379.199 170.281 379.273 171.98 379.325C173.679 379.378 175.378 379.465 177.078 379.587C178.778 379.709 180.478 379.731 182.178 379.653C183.879 379.575 185.576 379.456 187.27 379.295C188.964 379.134 190.662 379.032 192.364 378.988C194.066 378.944 195.763 378.841 197.457 378.679C199.151 378.517 200.842 378.333 202.531 378.128C204.22 377.923 205.894 377.62 207.554 377.219C209.213 376.819 210.888 376.522 212.579 376.328C214.269 376.134 215.947 375.87 217.614 375.535C219.28 375.2 220.943 374.853 222.602 374.494C224.261 374.136 225.93 373.82 227.61 373.547C229.29 373.275 230.956 372.938 232.609 372.538C234.261 372.138 235.901 371.69 237.528 371.194C239.156 370.699 240.806 370.289 242.478 369.964C244.15 369.64 245.798 369.225 247.422 368.718C249.045 368.212 250.674 367.724 252.308 367.256C253.942 366.788 255.57 366.298 257.191 365.787C258.812 365.276 260.448 364.812 262.101 364.394C263.753 363.976 265.364 363.435 266.934 362.77C268.504 362.106 270.09 361.491 271.693 360.925C273.296 360.359 274.908 359.818 276.531 359.302C278.153 358.787 279.734 358.163 281.273 357.43C282.812 356.697 284.373 356.021 285.955 355.402C287.538 354.783 289.106 354.128 290.658 353.437C292.211 352.745 293.779 352.09 295.363 351.472C296.947 350.853 298.519 350.206 300.079 349.531C301.639 348.855 303.208 348.198 304.787 347.559C306.366 346.921 307.893 346.174 309.368 345.319C310.844 344.464 312.358 343.69 313.912 342.996C315.466 342.303 316.967 341.506 318.415 340.606C319.863 339.707 321.345 338.872 322.86 338.102C324.375 337.333 325.915 336.607 327.479 335.923C329.044 335.24 330.522 334.402 331.914 333.41C333.305 332.418 334.769 331.551 336.305 330.811C337.841 330.07 339.326 329.243 340.761 328.329C342.195 327.415 343.638 326.516 345.09 325.631C346.541 324.746 347.98 323.84 349.406 322.912C350.831 321.984 352.31 321.146 353.841 320.398C355.372 319.65 356.659 318.729 357.701 317.635C358.743 316.541 359.876 315.571 361.1 314.724C362.323 313.878 363.672 313.026 365.147 312.168C366.621 311.31 368.078 310.431 369.516 309.53C370.954 308.63 372.378 307.708 373.788 306.765C375.198 305.822 376.616 304.886 378.041 303.956C379.467 303.027 380.869 302.062 382.247 301.062C383.626 300.061 384.921 298.961 386.134 297.762C387.346 296.562 388.602 295.413 389.901 294.315C391.2 293.217 392.439 292.055 393.618 290.829C394.797 289.603 396.018 288.418 397.28 287.274C398.543 286.13 399.747 284.929 400.893 283.672C402.039 282.414 403.145 281.122 404.21 279.796C405.276 278.47 406.345 277.148 407.418 275.829C408.491 274.511 409.595 273.217 410.728 271.947C411.862 270.676 412.679 269.263 413.179 267.708C413.678 266.153 414.589 265.04 415.909 264.37C417.23 263.699 418.433 262.711 419.519 261.404C420.604 260.097 421.652 258.759 422.662 257.389C423.671 256.019 424.624 254.611 425.52 253.163C426.416 251.716 427.239 250.229 427.988 248.701C428.737 247.173 429.487 245.648 430.239 244.127C430.99 242.605 431.685 241.059 432.322 239.487C432.959 237.915 433.579 236.335 434.183 234.749C434.786 233.162 435.308 231.548 435.746 229.906C436.185 228.265 436.552 226.606 436.847 224.932C437.143 223.257 437.328 221.572 437.405 219.875C437.481 218.179 437.437 216.488 437.273 214.803C437.108 213.118 436.882 211.439 436.593 209.767C436.304 208.095 435.908 206.443 435.404 204.811C434.901 203.179 434.204 201.635 433.314 200.177C432.425 198.719 431.475 197.318 430.466 195.972C429.457 194.627 428.169 193.821 426.601 193.554C425.034 193.288 424.221 193.147 424.164 193.133C424.107 193.12 424.216 193.954 424.489 195.637ZM102.599 273.656C101.771 274.598 100.675 275.561 99.3099 276.545C97.9449 277.528 96.6612 278.618 95.459 279.815C94.2567 281.012 93.1887 282.325 92.255 283.754C91.3213 285.183 90.2614 286.511 89.0755 287.737C87.8896 288.963 86.785 290.257 85.762 291.62C84.7389 292.983 83.6213 294.263 82.4091 295.46C81.1969 296.657 80.0301 297.896 78.9089 299.177C77.7876 300.459 76.9149 301.885 76.2907 303.457C75.6665 305.029 74.8415 306.232 73.8157 307.065C72.7898 307.899 71.8326 309.039 70.944 310.488C70.0554 311.936 69.1146 313.355 68.1218 314.746C67.1289 316.137 66.3116 317.625 65.6699 319.211C65.0282 320.796 64.2725 322.321 63.4029 323.786C62.5334 325.25 61.7849 326.773 61.1574 328.354C60.53 329.936 59.8236 331.484 59.0382 333C58.2527 334.516 57.6109 336.089 57.1125 337.719C56.6141 339.348 56.1516 340.986 55.725 342.632C55.2983 344.278 54.865 345.924 54.425 347.57C53.9851 349.216 53.7031 350.889 53.5793 352.588C53.4554 354.288 53.3163 355.984 53.1621 357.677C53.0078 359.371 52.9467 361.068 52.9785 362.77C53.0103 364.473 53.1069 366.172 53.2681 367.868C53.4294 369.563 53.6863 371.248 54.0388 372.921C54.3913 374.595 54.9002 376.217 55.5655 377.787C56.2308 379.357 56.9866 380.88 57.8326 382.353C58.6787 383.827 59.6257 385.23 60.6735 386.562C61.7214 387.894 62.8196 389.181 63.9683 390.423C65.1169 391.665 66.3071 392.87 67.5389 394.038C68.7706 395.207 70.0855 396.271 71.4836 397.232C72.8816 398.193 74.3236 399.087 75.8097 399.916C77.2958 400.744 78.8113 401.516 80.3562 402.231C81.901 402.946 83.4689 403.606 85.0598 404.211C86.6507 404.817 88.253 405.389 89.8667 405.928C91.4805 406.467 93.1039 406.975 94.7369 407.452C96.3699 407.928 98.0159 408.353 99.6751 408.726C101.334 409.1 102.991 409.486 104.644 409.884C106.298 410.283 107.97 410.582 109.66 410.784C111.35 410.985 113.027 411.28 114.689 411.669C116.352 412.058 118.032 412.325 119.728 412.472C121.424 412.619 123.122 412.742 124.821 412.841C126.52 412.939 128.219 413.023 129.918 413.094C131.617 413.164 133.316 413.222 135.016 413.265C136.716 413.309 138.416 413.351 140.117 413.39C141.818 413.429 143.519 413.446 145.221 413.441C146.923 413.436 148.62 413.316 150.312 413.082C152.003 412.847 153.698 412.691 155.395 412.614C157.093 412.536 158.787 412.417 160.479 412.256C162.171 412.095 163.869 411.991 165.573 411.943C167.277 411.896 168.972 411.752 170.656 411.51C172.34 411.269 174.016 410.97 175.682 410.613C177.349 410.255 179.032 410.013 180.732 409.887C182.433 409.76 184.11 409.492 185.765 409.081C187.419 408.67 189.091 408.361 190.781 408.153C192.472 407.946 194.146 407.652 195.803 407.271C197.461 406.89 199.114 406.492 200.763 406.076C202.412 405.66 204.074 405.302 205.749 405.003C207.424 404.704 209.092 404.371 210.752 404.004C212.413 403.637 214.056 403.199 215.681 402.691C217.306 402.183 218.952 401.756 220.619 401.411C222.287 401.067 223.95 400.703 225.608 400.321C227.267 399.938 228.888 399.431 230.472 398.8C232.056 398.169 233.637 397.557 235.215 396.966C236.793 396.374 238.005 395.564 238.852 394.537C239.699 393.509 239.344 392.801 237.788 392.412C236.232 392.023 234.602 391.87 232.899 391.951C231.196 392.033 229.502 392.199 227.816 392.449C226.131 392.699 224.445 392.936 222.756 393.159C221.068 393.383 219.394 393.684 217.735 394.063C216.076 394.442 214.416 394.82 212.757 395.195C211.097 395.571 209.422 395.849 207.73 396.031C206.039 396.213 204.352 396.428 202.67 396.676C200.988 396.925 199.301 397.136 197.608 397.31C195.916 397.484 194.222 397.622 192.525 397.723C190.828 397.825 189.131 397.912 187.433 397.987C185.735 398.062 184.037 398.135 182.339 398.208C180.64 398.281 178.941 398.336 177.24 398.372C175.54 398.408 173.841 398.353 172.146 398.208C170.45 398.062 168.748 398.009 167.041 398.05C165.334 398.09 163.639 397.975 161.955 397.706C160.272 397.437 158.591 397.171 156.912 396.909C155.232 396.648 153.557 396.367 151.884 396.067C150.212 395.767 148.55 395.416 146.9 395.015C145.25 394.615 143.592 394.234 141.928 393.875C140.264 393.515 138.63 393.05 137.027 392.478C135.424 391.906 133.827 391.318 132.237 390.713C130.647 390.109 129.081 389.447 127.539 388.728C125.997 388.009 124.459 387.276 122.926 386.529C121.394 385.783 119.955 384.881 118.611 383.823C117.268 382.765 115.899 381.752 114.507 380.785C113.114 379.817 111.712 378.862 110.301 377.921C108.889 376.98 107.616 375.88 106.483 374.621C105.349 373.362 104.202 372.105 103.042 370.851C101.882 369.597 100.943 368.194 100.227 366.643C99.5106 365.092 98.7322 363.573 97.8917 362.087C97.0512 360.601 96.3686 359.046 95.8439 357.421C95.3192 355.796 94.9041 354.146 94.5984 352.469C94.2928 350.792 93.9728 349.118 93.6384 347.447C93.3039 345.777 93.1476 344.087 93.1693 342.379C93.1911 340.671 93.1627 338.971 93.0842 337.279C93.0056 335.587 93.0281 333.893 93.1516 332.198C93.2752 330.502 93.5735 328.841 94.0467 327.214C94.5199 325.587 95.1082 324.004 95.8115 322.466C96.5149 320.927 97.5933 319.72 99.0467 318.843C100.5 317.966 102.06 317.34 103.726 316.966C105.392 316.592 106.452 315.729 106.907 314.375C107.361 313.022 107.606 311.495 107.641 309.796C107.676 308.097 107.658 306.399 107.586 304.701C107.514 303.003 107.492 301.302 107.521 299.598C107.549 297.893 107.468 296.195 107.278 294.504C107.088 292.812 106.906 291.121 106.733 289.43C106.56 287.738 106.391 286.047 106.225 284.355C106.059 282.663 105.936 280.967 105.856 279.267C105.776 277.567 105.541 275.983 105.151 274.516C104.762 273.048 104.446 272.302 104.204 272.278C103.961 272.254 103.426 272.714 102.599 273.656Z" fill="white"/>
<path d="M436.593 330.3C437.655 331.501 437.831 332.884 437.121 334.449C436.41 336.014 435.887 337.632 435.55 339.302C435.213 340.973 434.73 342.599 434.1 344.181C433.47 345.764 432.83 347.339 432.18 348.908C431.53 350.477 430.797 352.007 429.983 353.499C429.168 354.99 428.377 356.493 427.609 358.007C426.841 359.521 426.01 360.999 425.117 362.443C424.223 363.887 423.372 365.358 422.562 366.856C421.752 368.354 420.835 369.783 419.81 371.141C418.785 372.499 417.755 373.852 416.721 375.2C415.687 376.547 414.668 377.908 413.666 379.281C412.664 380.654 411.596 381.974 410.463 383.242C409.331 384.509 408.19 385.768 407.04 387.018C405.891 388.268 404.788 389.562 403.73 390.9C402.672 392.238 401.498 393.465 400.208 394.579C398.919 395.693 397.662 396.838 396.439 398.013C395.215 399.189 393.994 400.369 392.774 401.555C391.555 402.741 390.307 403.896 389.032 405.021C387.756 406.146 386.439 407.221 385.082 408.246C383.725 409.27 382.365 410.288 381.003 411.3C379.641 412.312 378.258 413.297 376.853 414.256C375.449 415.215 374.039 416.166 372.623 417.107C371.206 418.049 369.787 418.987 368.365 419.921C366.944 420.856 365.473 421.71 363.952 422.482C362.432 423.255 360.926 424.046 359.433 424.855C357.94 425.665 356.462 426.506 355 427.378C353.538 428.251 352.014 428.999 350.429 429.622C348.843 430.245 347.298 430.958 345.792 431.76C344.287 432.562 342.744 433.281 341.164 433.917C339.585 434.552 337.98 435.117 336.35 435.612C334.72 436.106 333.106 436.648 331.508 437.236C329.91 437.825 328.268 438.265 326.584 438.555C324.899 438.845 323.247 439.255 321.628 439.784C320.009 440.313 318.373 440.78 316.72 441.184C315.066 441.588 313.389 441.864 311.688 442.012C309.987 442.16 308.31 442.451 306.656 442.886C305.003 443.32 303.324 443.565 301.618 443.622C299.911 443.679 298.214 443.798 296.525 443.978C294.836 444.157 293.148 444.37 291.46 444.616C289.772 444.862 288.077 444.964 286.373 444.922C284.669 444.881 282.968 444.927 281.268 445.061C279.569 445.195 277.869 445.208 276.17 445.101C274.47 444.994 272.772 444.88 271.076 444.759C269.38 444.637 267.686 444.502 265.994 444.354C264.302 444.205 262.607 444.086 260.909 443.994C259.212 443.903 257.515 443.792 255.819 443.66C254.122 443.529 252.438 443.303 250.766 442.982C249.095 442.662 247.423 442.352 245.75 442.054C244.078 441.756 242.409 441.439 240.744 441.103C239.079 440.768 237.417 440.415 235.76 440.045C234.103 439.675 232.447 439.303 230.791 438.929C229.135 438.556 227.508 438.08 225.909 437.503C224.31 436.926 223.241 435.879 222.703 434.363C222.165 432.848 222.66 431.785 224.189 431.176C225.718 430.567 227.314 430.079 228.976 429.713C230.639 429.347 232.271 428.871 233.873 428.288C235.475 427.704 237.105 427.219 238.762 426.833C240.419 426.447 242.066 426.023 243.703 425.562C245.339 425.101 246.976 424.639 248.611 424.176C250.247 423.714 251.898 423.305 253.563 422.951C255.229 422.597 256.885 422.206 258.531 421.778C260.177 421.351 261.792 420.819 263.376 420.182C264.959 419.545 266.565 418.984 268.193 418.497C269.821 418.011 271.444 417.508 273.063 416.988C274.681 416.468 276.295 415.935 277.905 415.39C279.514 414.844 281.13 414.314 282.751 413.799C284.373 413.284 285.96 412.676 287.514 411.975C289.067 411.275 290.654 410.663 292.273 410.139C293.892 409.615 295.483 409.017 297.046 408.346C298.609 407.675 300.172 407.006 301.735 406.338C303.298 405.67 304.894 405.08 306.523 404.569C308.151 404.057 309.732 403.433 311.266 402.695C312.799 401.958 314.359 401.28 315.946 400.663C317.532 400.046 319.09 399.365 320.619 398.621C322.149 397.876 323.69 397.156 325.242 396.461C326.793 395.765 328.347 395.073 329.903 394.384C331.458 393.694 332.995 392.965 334.512 392.195C336.029 391.426 337.525 390.616 339.001 389.765C340.477 388.915 341.962 388.086 343.458 387.278C344.954 386.471 346.477 385.715 348.028 385.012C349.578 384.308 351.089 383.53 352.562 382.678C354.034 381.825 355.502 380.966 356.966 380.101C358.43 379.236 359.91 378.4 361.406 377.594C362.903 376.787 364.396 375.975 365.886 375.155C367.376 374.336 368.849 373.488 370.305 372.611C371.761 371.734 373.228 370.875 374.706 370.033C376.183 369.191 377.621 368.285 379.02 367.315C380.418 366.345 381.845 365.421 383.3 364.542C384.755 363.664 386.214 362.791 387.678 361.925C389.142 361.06 390.583 360.158 392.001 359.22C393.42 358.283 394.829 357.332 396.229 356.367C397.629 355.402 399.039 354.451 400.459 353.514C401.879 352.578 403.247 351.568 404.563 350.484C405.879 349.401 407.272 348.425 408.743 347.557C410.213 346.689 411.621 345.737 412.969 344.702C414.316 343.667 415.669 342.638 417.027 341.615C418.385 340.593 419.742 339.568 421.097 338.541C422.452 337.515 423.857 336.562 425.31 335.683C426.763 334.804 428.153 333.879 429.48 332.907C430.807 331.935 432.087 330.986 433.32 330.059C434.553 329.133 435.141 328.642 435.085 328.585C435.029 328.528 435.531 329.1 436.593 330.3Z" fill="white"/>
<path d="M364.393 131.004C365.896 131.801 367.365 132.657 368.801 133.57C370.237 134.483 371.04 134.186 371.21 132.676C371.379 131.167 371.526 129.567 371.65 127.874C371.774 126.182 372.373 124.691 373.448 123.402C374.522 122.113 375.859 121.176 377.456 120.592C379.054 120.008 380.687 119.553 382.356 119.227C384.024 118.9 385.706 118.669 387.4 118.533C389.094 118.398 390.789 118.279 392.486 118.177C394.183 118.074 395.88 117.993 397.579 117.932C399.278 117.872 400.979 117.873 402.68 117.936C404.381 118 406.081 118.004 407.779 117.948C409.477 117.892 411.176 117.863 412.876 117.86C414.576 117.856 416.277 117.829 417.979 117.778C419.682 117.727 421.38 117.793 423.074 117.976C424.767 118.159 426.46 118.326 428.153 118.479C429.845 118.631 431.542 118.742 433.243 118.812C434.944 118.882 436.641 119 438.335 119.167C440.029 119.333 441.717 119.547 443.399 119.809C445.082 120.07 446.747 120.421 448.394 120.861C450.041 121.3 451.707 121.651 453.391 121.913C455.075 122.175 456.723 122.583 458.334 123.137C459.946 123.691 461.58 124.167 463.236 124.565C464.892 124.963 466.527 125.433 468.141 125.974C469.756 126.516 471.327 127.166 472.853 127.925C474.38 128.684 475.919 129.41 477.47 130.103C479.021 130.796 480.526 131.577 481.985 132.448C483.444 133.318 484.944 134.121 486.486 134.855C488.028 135.59 489.45 136.511 490.752 137.617C492.054 138.723 493.414 139.747 494.833 140.689C496.251 141.632 497.577 142.69 498.809 143.864C500.041 145.038 501.186 146.289 502.244 147.617C503.301 148.945 504.326 150.296 505.318 151.67C506.31 153.044 507.31 154.417 508.319 155.79C509.328 157.163 510.164 158.634 510.829 160.203C511.493 161.772 512.227 163.31 513.032 164.817C513.837 166.325 514.458 167.903 514.896 169.552C515.334 171.2 515.767 172.849 516.195 174.497C516.622 176.145 516.981 177.808 517.272 179.488C517.562 181.168 517.75 182.859 517.836 184.561C517.922 186.263 517.926 187.963 517.849 189.661C517.771 191.359 517.686 193.054 517.594 194.746C517.501 196.438 517.428 198.137 517.373 199.842C517.319 201.548 517.148 203.241 516.861 204.921C516.574 206.602 516.185 208.258 515.693 209.891C515.202 211.523 514.734 213.161 514.289 214.803C513.845 216.445 513.291 218.05 512.628 219.618C511.965 221.186 511.371 222.78 510.845 224.401C510.319 226.021 509.683 227.596 508.938 229.126C508.192 230.656 507.409 232.165 506.59 233.655C505.771 235.145 505.019 236.672 504.335 238.237C503.65 239.801 502.845 241.298 501.919 242.728C500.992 244.158 500.046 245.572 499.079 246.972C498.113 248.372 497.176 249.792 496.269 251.233C495.363 252.673 494.379 254.059 493.318 255.389C492.257 256.72 491.223 258.071 490.217 259.443C489.211 260.815 488.193 262.178 487.164 263.531C486.134 264.885 485.079 266.219 483.999 267.533C482.919 268.847 481.818 270.144 480.696 271.423C479.574 272.702 478.464 273.991 477.365 275.291C476.267 276.591 475.138 277.864 473.98 279.111C472.822 280.359 471.649 281.591 470.461 282.81C469.273 284.028 468.081 285.244 466.887 286.457C465.692 287.671 464.502 288.878 463.316 290.079C462.129 291.28 461.011 292.553 459.961 293.896C458.911 295.24 457.77 296.503 456.54 297.685C455.31 298.867 454.014 299.97 452.652 300.993C451.29 302.016 449.964 303.081 448.672 304.187C447.38 305.293 446.112 306.424 444.869 307.582C443.625 308.739 442.39 309.901 441.163 311.07C439.936 312.239 438.618 313.263 437.21 314.142C435.801 315.021 434.667 316.041 433.807 317.202C432.948 318.363 431.891 319.519 430.637 320.671C429.384 321.822 428.062 322.889 426.673 323.871C425.284 324.852 423.875 325.804 422.445 326.724C421.015 327.645 419.601 328.589 418.203 329.556C416.805 330.523 415.403 331.485 413.998 332.442C412.593 333.399 411.213 334.392 409.86 335.422C408.507 336.453 407.116 337.431 405.686 338.356C404.257 339.281 402.88 340.279 401.554 341.351C400.229 342.422 398.83 343.386 397.357 344.241C395.884 345.096 394.43 345.978 392.993 346.887C391.556 347.795 390.125 348.713 388.698 349.639C387.272 350.566 385.819 351.449 384.34 352.288C382.861 353.127 381.389 353.977 379.923 354.839C378.458 355.702 377.003 356.58 375.557 357.475C374.11 358.37 372.624 359.196 371.098 359.954C369.572 360.712 368.11 361.58 366.713 362.558C365.315 363.536 363.865 364.424 362.363 365.222C360.86 366.02 359.385 366.866 357.936 367.76C356.488 368.654 355.006 369.486 353.488 370.256C351.971 371.025 350.465 371.816 348.971 372.627C347.476 373.438 345.975 374.236 344.467 375.021C342.959 375.807 341.454 376.599 339.953 377.396C338.451 378.194 336.948 378.99 335.444 379.784C333.94 380.577 332.411 381.322 330.859 382.018C329.306 382.714 327.747 383.395 326.181 384.06C324.615 384.725 323.083 385.462 321.585 386.273C320.086 387.083 318.565 387.846 317.021 388.56C315.478 389.274 313.91 389.933 312.318 390.536C310.727 391.139 309.145 391.764 307.573 392.412C306.001 393.06 304.41 393.656 302.798 394.201C301.186 394.746 299.595 395.345 298.025 395.997C296.456 396.65 294.871 397.263 293.271 397.836C291.671 398.41 290.093 399.04 288.536 399.728C286.98 400.415 285.431 401.116 283.891 401.828C282.351 402.541 280.773 403.173 279.157 403.723C277.541 404.273 275.95 404.879 274.386 405.54C272.821 406.202 271.237 406.814 269.634 407.378C268.031 407.941 266.435 408.522 264.844 409.119C263.253 409.716 261.654 410.289 260.046 410.839C258.438 411.388 256.835 411.955 255.237 412.54C253.639 413.125 252.012 413.615 250.356 414.01C248.699 414.406 247.052 414.829 245.413 415.279C243.774 415.729 242.152 416.239 240.547 416.81C238.942 417.381 237.326 417.913 235.698 418.405C234.071 418.897 232.419 419.293 230.742 419.594C229.066 419.895 227.412 420.283 225.78 420.76C224.147 421.237 222.503 421.667 220.846 422.048C219.189 422.43 217.537 422.829 215.889 423.244C214.241 423.659 212.589 424.059 210.934 424.443C209.279 424.828 207.636 425.271 206.006 425.775C204.375 426.278 202.712 426.626 201.017 426.82C199.321 427.014 197.653 427.351 196.015 427.831C194.376 428.31 192.713 428.666 191.028 428.9C189.342 429.134 187.659 429.385 185.98 429.654C184.301 429.922 182.618 430.163 180.931 430.375C179.244 430.587 177.559 430.811 175.876 431.046C174.193 431.282 172.505 431.481 170.813 431.645C169.121 431.808 167.434 432.009 165.75 432.248C164.067 432.487 162.378 432.678 160.684 432.822C158.991 432.966 157.299 433.14 155.609 433.343C153.919 433.546 152.222 433.628 150.517 433.588C148.813 433.549 147.114 433.624 145.42 433.815C143.725 434.006 142.028 434.066 140.327 433.995C138.626 433.924 136.925 433.907 135.225 433.943C133.524 433.98 131.824 433.969 130.125 433.912C128.425 433.855 126.728 433.75 125.034 433.596C123.34 433.443 121.646 433.305 119.95 433.183C118.255 433.061 116.561 432.925 114.867 432.773C113.173 432.621 111.48 432.451 109.788 432.261C108.096 432.072 106.41 431.837 104.73 431.558C103.05 431.278 101.393 430.891 99.7597 430.397C98.126 429.902 96.4689 429.51 94.7884 429.221C93.1079 428.932 91.4644 428.503 89.8579 427.937C88.2514 427.37 86.6386 426.827 85.0196 426.309C83.4005 425.791 81.7896 425.246 80.1867 424.673C78.5837 424.101 77.0293 423.417 75.5233 422.62C74.0173 421.824 72.4861 421.082 70.9295 420.395C69.373 419.709 67.8567 418.942 66.3806 418.094C64.9046 417.246 63.4923 416.301 62.1439 415.258C60.7954 414.215 59.3859 413.26 57.9154 412.393C56.4449 411.527 55.0561 410.547 53.7488 409.455C52.4415 408.363 51.1551 407.247 49.8895 406.107C48.6239 404.968 47.4509 403.739 46.3704 402.423C45.2899 401.106 44.2143 399.791 43.1435 398.478C42.0727 397.165 41.0412 395.819 40.0491 394.441C39.057 393.064 38.1747 391.618 37.4022 390.106C36.6297 388.594 35.9038 387.061 35.2244 385.506C34.5451 383.951 33.915 382.372 33.3342 380.767C32.7533 379.162 32.3739 377.512 32.196 375.815C32.018 374.119 31.8619 372.425 31.7276 370.734C31.5934 369.043 31.4302 367.352 31.2382 365.661C31.0462 363.971 31.0081 362.277 31.124 360.58C31.2399 358.883 31.3603 357.189 31.485 355.498C31.6097 353.808 31.7304 352.114 31.8471 350.418C31.9637 348.722 32.1469 347.032 32.3966 345.348C32.6463 343.665 33.015 342.007 33.5026 340.375C33.9903 338.743 34.4496 337.105 34.8807 335.462C35.3117 333.819 35.7861 332.188 36.3038 330.568C36.8215 328.948 37.3813 327.342 37.9831 325.75C38.585 324.157 39.3065 322.62 40.1477 321.136C40.9889 319.653 41.7392 318.125 42.3987 316.554C43.0581 314.982 43.8424 313.476 44.7515 312.037C45.6606 310.598 46.5903 309.173 47.5405 307.763C48.4906 306.353 49.4731 304.964 50.4879 303.596C51.5027 302.228 52.4135 300.793 53.2202 299.291C54.027 297.789 54.9237 296.345 55.9104 294.958C56.8971 293.572 57.8687 292.176 58.8254 290.77C59.782 289.364 60.7569 287.97 61.7502 286.59C62.7435 285.209 63.7656 283.85 64.8165 282.513C65.8674 281.175 66.9478 279.862 68.0576 278.574C69.1674 277.286 70.2668 275.989 71.3558 274.685C72.4448 273.38 73.5901 272.127 74.7916 270.925C75.9931 269.723 77.1875 268.515 78.3747 267.302C79.5619 266.088 80.7718 264.896 82.0042 263.725C83.2367 262.554 84.5207 261.442 85.8562 260.39C87.1917 259.338 88.6507 258.602 90.2332 258.184C91.8157 257.766 93.4421 257.609 95.1124 257.715C96.7827 257.82 98.3334 258.275 99.7643 259.082C101.195 259.888 102.38 260.489 103.319 260.885C104.257 261.281 104.902 260.667 105.252 259.042C105.602 257.416 105.844 255.755 105.98 254.056C106.115 252.357 106.388 250.68 106.798 249.023C107.208 247.367 107.561 245.702 107.857 244.031C108.152 242.359 108.479 240.693 108.837 239.033C109.195 237.372 109.604 235.724 110.064 234.089C110.524 232.453 110.938 230.803 111.305 229.139C111.671 227.475 112.104 225.83 112.603 224.204C113.102 222.578 113.642 220.965 114.223 219.365C114.804 217.766 115.37 216.161 115.922 214.551C116.473 212.941 117.118 211.369 117.855 209.834C118.593 208.299 119.324 206.764 120.049 205.228C120.774 203.693 121.536 202.176 122.336 200.679C123.136 199.181 123.963 197.697 124.818 196.228C125.672 194.759 126.51 193.281 127.332 191.794C128.153 190.307 128.961 188.812 129.757 187.309C130.552 185.806 131.422 184.345 132.365 182.928C133.307 181.511 134.248 180.095 135.186 178.678C136.124 177.261 137.123 175.887 138.182 174.557C139.241 173.226 140.286 171.886 141.317 170.535C142.347 169.185 143.368 167.825 144.379 166.456C145.39 165.087 146.561 163.863 147.893 162.786C149.225 161.709 150.541 160.684 151.842 159.71C153.142 158.737 154.203 157.518 155.025 156.055C155.847 154.592 156.9 153.355 158.185 152.344C159.471 151.333 160.514 150.343 161.315 149.375C162.116 148.407 163.173 147.385 164.486 146.31C165.798 145.235 167.12 144.171 168.452 143.118C169.784 142.065 171.132 141.033 172.497 140.023C173.861 139.012 175.229 138.005 176.599 137C177.97 135.996 179.347 134.998 180.731 134.008C182.115 133.018 183.531 132.076 184.979 131.183C186.427 130.289 187.897 129.434 189.389 128.616C190.881 127.799 192.394 127.023 193.929 126.289C195.463 125.555 196.992 124.812 198.515 124.062C200.038 123.311 201.537 122.504 203.011 121.643C204.485 120.781 206.03 120.074 207.643 119.521C209.257 118.968 210.831 118.322 212.366 117.58C213.901 116.839 215.473 116.191 217.081 115.637C218.689 115.084 220.278 114.476 221.847 113.816C223.416 113.155 225.028 112.617 226.681 112.2C228.335 111.783 229.961 111.281 231.56 110.694C233.159 110.108 234.794 109.651 236.465 109.324C238.136 108.997 239.794 108.618 241.441 108.188C243.087 107.757 244.744 107.371 246.412 107.031C248.081 106.691 249.768 106.488 251.475 106.424C253.182 106.359 254.879 106.233 256.566 106.045C258.252 105.857 259.94 105.659 261.629 105.45C263.318 105.241 265.012 105.097 266.711 105.018C268.411 104.939 270.112 104.871 271.814 104.814C273.516 104.757 275.214 104.833 276.91 105.043C278.605 105.252 280.304 105.356 282.007 105.353C283.71 105.35 285.405 105.462 287.091 105.688C288.778 105.915 290.464 106.134 292.149 106.347C293.835 106.559 295.524 106.754 297.217 106.93C298.909 107.106 300.587 107.375 302.249 107.738C303.911 108.101 305.579 108.436 307.251 108.743C308.923 109.05 310.582 109.421 312.226 109.855C313.87 110.29 315.52 110.701 317.176 111.089C318.832 111.477 320.477 111.905 322.113 112.374C323.748 112.843 325.366 113.364 326.968 113.937C328.57 114.509 330.174 115.075 331.779 115.635C333.385 116.196 334.985 116.77 336.582 117.36C338.178 117.949 339.731 118.639 341.242 119.43C342.753 120.221 344.285 120.958 345.84 121.642C347.394 122.326 348.936 123.036 350.467 123.771C351.998 124.507 353.55 125.204 355.126 125.862C356.701 126.521 358.188 127.34 359.587 128.319C360.986 129.299 361.761 129.793 361.912 129.799C362.064 129.806 362.891 130.207 364.393 131.004ZM386.283 138.422C384.588 138.559 382.918 138.815 381.272 139.189C379.626 139.564 378.74 140.293 378.613 141.376C378.487 142.46 379.083 143.538 380.404 144.609C381.724 145.681 383.051 146.746 384.384 147.804C385.717 148.862 387.016 149.96 388.282 151.098C389.547 152.236 390.795 153.393 392.026 154.569C393.257 155.744 394.417 156.988 395.507 158.301C396.597 159.613 397.76 160.855 398.997 162.025C400.234 163.196 401.404 164.428 402.508 165.722C403.611 167.017 404.769 168.259 405.982 169.45C407.195 170.64 408.388 171.755 409.561 172.795C410.733 173.834 411.875 173.72 412.985 172.453C414.095 171.185 415.378 170.135 416.833 169.301C418.289 168.467 419.842 167.902 421.494 167.605C423.145 167.309 424.774 167.412 426.381 167.913C427.988 168.415 429.504 169.125 430.928 170.043C432.353 170.961 433.757 171.911 435.142 172.893C436.528 173.875 437.896 174.901 439.248 175.971C440.6 177.041 441.694 177.957 442.531 178.721C443.368 179.484 444.394 180.245 445.607 181.002C446.821 181.76 447.735 182.933 448.35 184.52C448.965 186.107 449.696 187.639 450.543 189.115C451.391 190.592 452.231 192.075 453.064 193.566C453.897 195.057 454.533 196.628 454.972 198.279C455.412 199.931 455.773 201.598 456.056 203.28C456.339 204.962 456.485 206.655 456.495 208.359C456.505 210.063 456.543 211.765 456.608 213.465C456.673 215.165 456.696 216.865 456.678 218.564C456.66 220.263 456.571 221.959 456.412 223.651C456.252 225.344 456.146 227.042 456.094 228.746C456.042 230.45 455.765 232.117 455.265 233.748C454.765 235.378 454.324 237.021 453.943 238.677C453.562 240.333 453.09 241.964 452.528 243.571C451.966 245.178 451.333 246.757 450.63 248.309C449.928 249.861 449.123 251.359 448.216 252.802C447.309 254.245 446.447 255.712 445.631 257.203C444.814 258.694 443.972 260.171 443.103 261.634C442.234 263.096 441.335 264.54 440.405 265.966C439.476 267.392 438.523 268.802 437.548 270.198C436.573 271.593 435.552 272.954 434.485 274.28C433.418 275.607 432.345 276.927 431.265 278.241C430.186 279.554 429.11 280.872 428.039 282.192C426.968 283.513 425.851 284.794 424.688 286.036C423.526 287.278 422.35 288.505 421.161 289.72C419.971 290.934 418.808 292.173 417.671 293.437C416.533 294.701 415.38 295.95 414.21 297.186C413.041 298.421 411.844 299.63 410.62 300.811C409.396 301.992 408.126 303.123 406.81 304.203C405.494 305.283 404.188 306.373 402.892 307.473C401.596 308.573 400.354 309.735 399.166 310.961C397.978 312.187 396.688 313.294 395.298 314.281C393.907 315.268 392.574 316.324 391.298 317.45C390.022 318.575 388.746 319.699 387.471 320.822C386.196 321.944 384.894 323.036 383.565 324.097C382.236 325.159 381.508 326.158 381.379 327.094C381.25 328.029 381.995 328.375 383.615 328.13C385.234 327.885 386.715 327.238 388.06 326.19C389.405 325.142 390.726 324.065 392.023 322.961C393.32 321.856 394.658 320.806 396.037 319.811C397.416 318.816 398.764 317.78 400.08 316.702C401.397 315.624 402.746 314.589 404.128 313.597C405.509 312.604 406.933 311.671 408.399 310.798C409.866 309.925 411.268 308.963 412.607 307.913C413.946 306.862 415.283 305.812 416.617 304.764C417.952 303.715 419.272 302.649 420.577 301.566C421.882 300.483 423.131 299.338 424.325 298.131C425.519 296.923 426.77 295.774 428.078 294.682C429.386 293.59 430.681 292.485 431.962 291.367C433.243 290.25 434.488 289.092 435.698 287.894C436.907 286.697 438.101 285.483 439.278 284.254C440.455 283.025 441.695 281.861 442.998 280.763C444.302 279.666 445.507 278.468 446.613 277.171C447.72 275.874 448.895 274.645 450.138 273.484C451.382 272.323 452.616 271.151 453.84 269.968C455.065 268.785 456.21 267.528 457.275 266.199C458.339 264.869 459.434 263.567 460.559 262.293C461.683 261.018 462.755 259.7 463.773 258.337C464.792 256.975 465.87 255.66 467.008 254.395C468.147 253.129 469.213 251.806 470.207 250.427C471.202 249.048 472.217 247.684 473.253 246.335C474.288 244.987 475.236 243.576 476.095 242.105C476.954 240.634 477.914 239.23 478.975 237.893C480.036 236.556 480.969 235.137 481.772 233.635C482.576 232.133 483.411 230.649 484.277 229.184C485.144 227.719 486.001 226.254 486.849 224.787C487.696 223.32 488.569 221.862 489.466 220.411C490.363 218.961 491.135 217.448 491.781 215.871C492.428 214.295 493.009 212.696 493.524 211.073C494.04 209.45 494.524 207.818 494.978 206.177C495.432 204.536 495.745 202.868 495.916 201.173C496.088 199.478 496.339 197.793 496.671 196.118C497.003 194.442 497.13 192.753 497.053 191.049C496.975 189.346 496.837 187.652 496.638 185.968C496.438 184.284 496.201 182.606 495.925 180.935C495.65 179.264 495.209 177.635 494.602 176.049C493.995 174.463 493.312 172.911 492.552 171.393C491.793 169.874 490.961 168.396 490.058 166.959C489.155 165.521 488.16 164.15 487.074 162.846C485.987 161.543 484.839 160.299 483.627 159.116C482.416 157.932 481.167 156.79 479.881 155.688C478.595 154.587 477.266 153.536 475.895 152.536C474.523 151.536 473.09 150.637 471.594 149.837C470.098 149.037 468.594 148.242 467.082 147.453C465.57 146.663 464.002 146.011 462.377 145.497C460.751 144.983 459.126 144.478 457.501 143.982C455.875 143.486 454.243 143.014 452.605 142.565C450.966 142.116 449.32 141.694 447.667 141.299C446.014 140.904 444.348 140.574 442.669 140.31C440.99 140.045 439.306 139.815 437.619 139.621C435.931 139.427 434.251 139.16 432.579 138.821C430.907 138.482 429.217 138.324 427.51 138.348C425.803 138.373 424.105 138.254 422.417 137.992C420.729 137.73 419.034 137.648 417.33 137.745C415.626 137.842 413.925 137.819 412.227 137.676C410.528 137.533 408.829 137.485 407.129 137.53C405.429 137.576 403.73 137.669 402.034 137.808C400.337 137.947 398.637 137.988 396.934 137.932C395.231 137.876 393.533 137.936 391.839 138.112C390.145 138.289 389.22 138.351 389.062 138.297C388.905 138.243 387.979 138.285 386.283 138.422ZM423.196 191.577C422.906 190.842 422.722 190.494 422.644 190.533C422.567 190.572 422.668 190.741 422.948 191.041C423.229 191.34 423.413 191.688 423.5 192.084C423.588 192.48 423.487 192.311 423.196 191.577ZM424.489 195.637C424.763 197.32 425.181 198.967 425.745 200.576C426.309 202.185 426.861 203.795 427.399 205.405C427.938 207.016 428.258 208.67 428.361 210.367C428.463 212.064 428.48 213.76 428.412 215.453C428.343 217.147 428.237 218.843 428.093 220.542C427.949 222.242 427.611 223.902 427.078 225.522C426.546 227.143 426.059 228.776 425.618 230.423C425.176 232.07 424.536 233.636 423.695 235.121C422.855 236.606 422.076 238.12 421.358 239.661C420.641 241.202 419.83 242.693 418.926 244.133C418.021 245.574 417.023 246.946 415.93 248.249C414.837 249.553 413.768 250.872 412.722 252.208C411.676 253.543 410.573 254.83 409.414 256.069C408.254 257.308 407.115 258.571 405.996 259.858C404.878 261.144 403.783 262.447 402.713 263.765C401.642 265.083 400.516 266.353 399.336 267.575C398.155 268.796 396.997 270.039 395.862 271.305C394.727 272.571 393.568 273.816 392.388 275.04C391.207 276.265 389.988 277.45 388.732 278.597C387.476 279.743 386.196 280.863 384.893 281.955C383.589 283.047 382.271 284.121 380.937 285.175C379.604 286.229 378.299 287.317 377.022 288.44C375.745 289.563 374.451 290.666 373.14 291.749C371.829 292.833 370.463 293.844 369.043 294.783C367.623 295.722 366.261 296.741 364.957 297.84C363.654 298.939 362.28 299.94 360.836 300.841C359.392 301.742 357.985 302.699 356.615 303.709C355.245 304.72 353.816 305.64 352.327 306.468C350.838 307.296 349.377 308.168 347.945 309.083C346.513 309.999 345.05 310.862 343.555 311.674C342.06 312.486 340.619 313.389 339.232 314.384C337.845 315.38 336.409 316.292 334.924 317.121C333.438 317.95 331.927 318.731 330.39 319.464C328.853 320.197 327.341 320.977 325.856 321.802C324.37 322.628 322.867 323.421 321.346 324.181C319.825 324.941 318.318 325.728 316.824 326.54C315.331 327.353 313.832 328.156 312.329 328.951C310.825 329.745 309.32 330.536 307.812 331.323C306.305 332.111 304.762 332.823 303.183 333.46C301.604 334.098 300.042 334.77 298.496 335.476C296.95 336.182 295.424 336.929 293.917 337.717C292.41 338.505 290.897 339.283 289.379 340.051C287.861 340.82 286.323 341.545 284.765 342.228C283.208 342.911 281.643 343.576 280.07 344.223C278.497 344.87 276.914 345.493 275.322 346.09C273.729 346.688 272.168 347.363 270.638 348.116C269.109 348.869 267.525 349.486 265.887 349.965C264.25 350.445 262.651 351.027 261.093 351.712C259.534 352.397 257.944 352.994 256.321 353.504C254.697 354.014 253.077 354.53 251.46 355.052C249.843 355.574 248.225 356.094 246.608 356.614C244.991 357.133 243.388 357.702 241.8 358.321C240.212 358.94 238.604 359.494 236.975 359.981C235.345 360.469 233.697 360.888 232.03 361.236C230.364 361.584 228.71 361.979 227.068 362.419C225.427 362.86 223.785 363.303 222.143 363.75C220.501 364.197 218.848 364.598 217.184 364.953C215.52 365.308 213.846 365.605 212.161 365.845C210.476 366.085 208.791 366.314 207.104 366.531C205.418 366.748 203.739 367.015 202.068 367.333C200.396 367.65 198.711 367.864 197.013 367.973C195.315 368.083 193.619 368.192 191.924 368.3C190.229 368.408 188.538 368.598 186.85 368.87C185.162 369.141 183.466 369.216 181.763 369.094C180.059 368.972 178.357 368.972 176.655 369.094C174.954 369.215 173.256 369.186 171.562 369.005C169.868 368.825 168.175 368.656 166.484 368.497C164.793 368.339 163.098 368.208 161.398 368.106C159.698 368.003 158.017 367.77 156.353 367.408C154.69 367.046 153.023 366.71 151.353 366.399C149.682 366.089 148.012 365.764 146.343 365.426C144.673 365.089 143.071 364.544 141.535 363.792C139.999 363.04 138.466 362.299 136.937 361.569C135.407 360.839 133.877 360.098 132.346 359.347C130.815 358.596 129.431 357.635 128.195 356.464C126.958 355.293 125.847 354.027 124.861 352.665C123.875 351.304 123.01 349.864 122.265 348.347C121.52 346.83 120.734 345.326 119.908 343.836C119.083 342.346 118.22 341.171 117.32 340.31C116.42 339.449 115.69 339.806 115.129 341.382C114.568 342.957 114.46 344.577 114.804 346.24C115.148 347.903 115.626 349.528 116.239 351.112C116.851 352.697 117.529 354.256 118.273 355.788C119.017 357.32 119.934 358.741 121.023 360.049C122.113 361.358 123.211 362.659 124.319 363.953C125.426 365.247 126.741 366.289 128.262 367.078C129.784 367.868 131.291 368.664 132.784 369.466C134.278 370.268 135.8 371.013 137.351 371.7C138.902 372.388 140.454 373.085 142.008 373.791C143.561 374.498 145.171 375.032 146.838 375.395C148.505 375.758 150.159 376.164 151.8 376.614C153.44 377.064 155.094 377.461 156.762 377.805C158.429 378.149 160.108 378.428 161.798 378.64C163.488 378.852 165.182 379.006 166.882 379.103C168.581 379.199 170.281 379.273 171.98 379.325C173.679 379.378 175.378 379.465 177.078 379.587C178.778 379.709 180.478 379.731 182.178 379.653C183.879 379.575 185.576 379.456 187.27 379.295C188.964 379.134 190.662 379.032 192.364 378.988C194.066 378.944 195.763 378.841 197.457 378.679C199.151 378.517 200.842 378.333 202.531 378.128C204.22 377.923 205.894 377.62 207.554 377.219C209.213 376.819 210.888 376.522 212.579 376.328C214.269 376.134 215.947 375.87 217.614 375.535C219.28 375.2 220.943 374.853 222.602 374.494C224.261 374.136 225.93 373.82 227.61 373.547C229.29 373.275 230.956 372.938 232.609 372.538C234.261 372.138 235.901 371.69 237.528 371.194C239.156 370.699 240.806 370.289 242.478 369.964C244.15 369.64 245.798 369.225 247.422 368.718C249.045 368.212 250.674 367.724 252.308 367.256C253.942 366.788 255.57 366.298 257.191 365.787C258.812 365.276 260.448 364.812 262.101 364.394C263.753 363.976 265.364 363.435 266.934 362.77C268.504 362.106 270.09 361.491 271.693 360.925C273.296 360.359 274.908 359.818 276.531 359.302C278.153 358.787 279.734 358.163 281.273 357.43C282.812 356.697 284.373 356.021 285.955 355.402C287.538 354.783 289.106 354.128 290.658 353.437C292.211 352.745 293.779 352.09 295.363 351.472C296.947 350.853 298.519 350.206 300.079 349.531C301.639 348.855 303.208 348.198 304.787 347.559C306.366 346.921 307.893 346.174 309.368 345.319C310.844 344.464 312.358 343.69 313.912 342.996C315.466 342.303 316.967 341.506 318.415 340.606C319.863 339.707 321.345 338.872 322.86 338.102C324.375 337.333 325.915 336.607 327.479 335.923C329.044 335.24 330.522 334.402 331.914 333.41C333.305 332.418 334.769 331.551 336.305 330.811C337.841 330.07 339.326 329.243 340.761 328.329C342.195 327.415 343.638 326.516 345.09 325.631C346.541 324.746 347.98 323.84 349.406 322.912C350.831 321.984 352.31 321.146 353.841 320.398C355.372 319.65 356.659 318.729 357.701 317.635C358.743 316.541 359.876 315.571 361.1 314.724C362.323 313.878 363.672 313.026 365.147 312.168C366.621 311.31 368.078 310.431 369.516 309.53C370.954 308.63 372.378 307.708 373.788 306.765C375.198 305.822 376.616 304.886 378.041 303.956C379.467 303.027 380.869 302.062 382.247 301.062C383.626 300.061 384.921 298.961 386.134 297.762C387.346 296.562 388.602 295.413 389.901 294.315C391.2 293.217 392.439 292.055 393.618 290.829C394.797 289.603 396.018 288.418 397.28 287.274C398.543 286.13 399.747 284.929 400.893 283.672C402.039 282.414 403.145 281.122 404.21 279.796C405.276 278.47 406.345 277.148 407.418 275.829C408.491 274.511 409.595 273.217 410.728 271.947C411.862 270.676 412.679 269.263 413.179 267.708C413.678 266.153 414.589 265.04 415.909 264.37C417.23 263.699 418.433 262.711 419.519 261.404C420.604 260.097 421.652 258.759 422.662 257.389C423.671 256.019 424.624 254.611 425.52 253.163C426.416 251.716 427.239 250.229 427.988 248.701C428.737 247.173 429.487 245.648 430.239 244.127C430.99 242.605 431.685 241.059 432.322 239.487C432.959 237.915 433.579 236.335 434.183 234.749C434.786 233.162 435.308 231.548 435.746 229.906C436.185 228.265 436.552 226.606 436.847 224.932C437.143 223.257 437.328 221.572 437.405 219.875C437.481 218.179 437.437 216.488 437.273 214.803C437.108 213.118 436.882 211.439 436.593 209.767C436.304 208.095 435.908 206.443 435.404 204.811C434.901 203.179 434.204 201.635 433.314 200.177C432.425 198.719 431.475 197.318 430.466 195.972C429.457 194.627 428.169 193.821 426.601 193.554C425.034 193.288 424.221 193.147 424.164 193.133C424.107 193.12 424.216 193.954 424.489 195.637ZM102.599 273.656C101.771 274.598 100.675 275.561 99.3099 276.545C97.9449 277.528 96.6612 278.618 95.459 279.815C94.2567 281.012 93.1887 282.325 92.255 283.754C91.3213 285.183 90.2614 286.511 89.0755 287.737C87.8896 288.963 86.785 290.257 85.762 291.62C84.7389 292.983 83.6213 294.263 82.4091 295.46C81.1969 296.657 80.0301 297.896 78.9089 299.177C77.7876 300.459 76.9149 301.885 76.2907 303.457C75.6665 305.029 74.8415 306.232 73.8157 307.065C72.7898 307.899 71.8326 309.039 70.944 310.488C70.0554 311.936 69.1146 313.355 68.1218 314.746C67.1289 316.137 66.3116 317.625 65.6699 319.211C65.0282 320.796 64.2725 322.321 63.4029 323.786C62.5334 325.25 61.7849 326.773 61.1574 328.354C60.53 329.936 59.8236 331.484 59.0382 333C58.2527 334.516 57.6109 336.089 57.1125 337.719C56.6141 339.348 56.1516 340.986 55.725 342.632C55.2983 344.278 54.865 345.924 54.425 347.57C53.9851 349.216 53.7031 350.889 53.5793 352.588C53.4554 354.288 53.3163 355.984 53.1621 357.677C53.0078 359.371 52.9467 361.068 52.9785 362.77C53.0103 364.473 53.1069 366.172 53.2681 367.868C53.4294 369.563 53.6863 371.248 54.0388 372.921C54.3913 374.595 54.9002 376.217 55.5655 377.787C56.2308 379.357 56.9866 380.88 57.8326 382.353C58.6787 383.827 59.6257 385.23 60.6735 386.562C61.7214 387.894 62.8196 389.181 63.9683 390.423C65.1169 391.665 66.3071 392.87 67.5389 394.038C68.7706 395.207 70.0855 396.271 71.4836 397.232C72.8816 398.193 74.3236 399.087 75.8097 399.916C77.2958 400.744 78.8113 401.516 80.3562 402.231C81.901 402.946 83.4689 403.606 85.0598 404.211C86.6507 404.817 88.253 405.389 89.8667 405.928C91.4805 406.467 93.1039 406.975 94.7369 407.452C96.3699 407.928 98.0159 408.353 99.6751 408.726C101.334 409.1 102.991 409.486 104.644 409.884C106.298 410.283 107.97 410.582 109.66 410.784C111.35 410.985 113.027 411.28 114.689 411.669C116.352 412.058 118.032 412.325 119.728 412.472C121.424 412.619 123.122 412.742 124.821 412.841C126.52 412.939 128.219 413.023 129.918 413.094C131.617 413.164 133.316 413.222 135.016 413.265C136.716 413.309 138.416 413.351 140.117 413.39C141.818 413.429 143.519 413.446 145.221 413.441C146.923 413.436 148.62 413.316 150.312 413.082C152.003 412.847 153.698 412.691 155.395 412.614C157.093 412.536 158.787 412.417 160.479 412.256C162.171 412.095 163.869 411.991 165.573 411.943C167.277 411.896 168.972 411.752 170.656 411.51C172.34 411.269 174.016 410.97 175.682 410.613C177.349 410.255 179.032 410.013 180.732 409.887C182.433 409.76 184.11 409.492 185.765 409.081C187.419 408.67 189.091 408.361 190.781 408.153C192.472 407.946 194.146 407.652 195.803 407.271C197.461 406.89 199.114 406.492 200.763 406.076C202.412 405.66 204.074 405.302 205.749 405.003C207.424 404.704 209.092 404.371 210.752 404.004C212.413 403.637 214.056 403.199 215.681 402.691C217.306 402.183 218.952 401.756 220.619 401.411C222.287 401.067 223.95 400.703 225.608 400.321C227.267 399.938 228.888 399.431 230.472 398.8C232.056 398.169 233.637 397.557 235.215 396.966C236.793 396.374 238.005 395.564 238.852 394.537C239.699 393.509 239.344 392.801 237.788 392.412C236.232 392.023 234.602 391.87 232.899 391.951C231.196 392.033 229.502 392.199 227.816 392.449C226.131 392.699 224.445 392.936 222.756 393.159C221.068 393.383 219.394 393.684 217.735 394.063C216.076 394.442 214.416 394.82 212.757 395.195C211.097 395.571 209.422 395.849 207.73 396.031C206.039 396.213 204.352 396.428 202.67 396.676C200.988 396.925 199.301 397.136 197.608 397.31C195.916 397.484 194.222 397.622 192.525 397.723C190.828 397.825 189.131 397.912 187.433 397.987C185.735 398.062 184.037 398.135 182.339 398.208C180.64 398.281 178.941 398.336 177.24 398.372C175.54 398.408 173.841 398.353 172.146 398.208C170.45 398.062 168.748 398.009 167.041 398.05C165.334 398.09 163.639 397.975 161.955 397.706C160.272 397.437 158.591 397.171 156.912 396.909C155.232 396.648 153.557 396.367 151.884 396.067C150.212 395.767 148.55 395.416 146.9 395.015C145.25 394.615 143.592 394.234 141.928 393.875C140.264 393.515 138.63 393.05 137.027 392.478C135.424 391.906 133.827 391.318 132.237 390.713C130.647 390.109 129.081 389.447 127.539 388.728C125.997 388.009 124.459 387.276 122.926 386.529C121.394 385.783 119.955 384.881 118.611 383.823C117.268 382.765 115.899 381.752 114.507 380.785C113.114 379.817 111.712 378.862 110.301 377.921C108.889 376.98 107.616 375.88 106.483 374.621C105.349 373.362 104.202 372.105 103.042 370.851C101.882 369.597 100.943 368.194 100.227 366.643C99.5106 365.092 98.7322 363.573 97.8917 362.087C97.0512 360.601 96.3686 359.046 95.8439 357.421C95.3192 355.796 94.9041 354.146 94.5984 352.469C94.2928 350.792 93.9728 349.118 93.6384 347.447C93.3039 345.777 93.1476 344.087 93.1693 342.379C93.1911 340.671 93.1627 338.971 93.0842 337.279C93.0056 335.587 93.0281 333.893 93.1516 332.198C93.2752 330.502 93.5735 328.841 94.0467 327.214C94.5199 325.587 95.1082 324.004 95.8115 322.466C96.5149 320.927 97.5933 319.72 99.0467 318.843C100.5 317.966 102.06 317.34 103.726 316.966C105.392 316.592 106.452 315.729 106.907 314.375C107.361 313.022 107.606 311.495 107.641 309.796C107.676 308.097 107.658 306.399 107.586 304.701C107.514 303.003 107.492 301.302 107.521 299.598C107.549 297.893 107.468 296.195 107.278 294.504C107.088 292.812 106.906 291.121 106.733 289.43C106.56 287.738 106.391 286.047 106.225 284.355C106.059 282.663 105.936 280.967 105.856 279.267C105.776 277.567 105.541 275.983 105.151 274.516C104.762 273.048 104.446 272.302 104.204 272.278C103.961 272.254 103.426 272.714 102.599 273.656Z" stroke="white" stroke-width="3"/>
<path d="M436.593 330.3C437.655 331.501 437.831 332.884 437.121 334.449C436.41 336.014 435.887 337.632 435.55 339.302C435.213 340.973 434.73 342.599 434.1 344.181C433.47 345.764 432.83 347.339 432.18 348.908C431.53 350.477 430.797 352.007 429.983 353.499C429.168 354.99 428.377 356.493 427.609 358.007C426.841 359.521 426.01 360.999 425.117 362.443C424.223 363.887 423.372 365.358 422.562 366.856C421.752 368.354 420.835 369.783 419.81 371.141C418.785 372.499 417.755 373.852 416.721 375.2C415.687 376.547 414.668 377.908 413.666 379.281C412.664 380.654 411.596 381.974 410.463 383.242C409.331 384.509 408.19 385.768 407.04 387.018C405.891 388.268 404.788 389.562 403.73 390.9C402.672 392.238 401.498 393.465 400.208 394.579C398.919 395.693 397.662 396.838 396.439 398.013C395.215 399.189 393.994 400.369 392.774 401.555C391.555 402.741 390.307 403.896 389.032 405.021C387.756 406.146 386.439 407.221 385.082 408.246C383.725 409.27 382.365 410.288 381.003 411.3C379.641 412.312 378.258 413.297 376.853 414.256C375.449 415.215 374.039 416.166 372.623 417.107C371.206 418.049 369.787 418.987 368.365 419.921C366.944 420.856 365.473 421.71 363.952 422.482C362.432 423.255 360.926 424.046 359.433 424.855C357.94 425.665 356.462 426.506 355 427.378C353.538 428.251 352.014 428.999 350.429 429.622C348.843 430.245 347.298 430.958 345.792 431.76C344.287 432.562 342.744 433.281 341.164 433.917C339.585 434.552 337.98 435.117 336.35 435.612C334.72 436.106 333.106 436.648 331.508 437.236C329.91 437.825 328.268 438.265 326.584 438.555C324.899 438.845 323.247 439.255 321.628 439.784C320.009 440.313 318.373 440.78 316.72 441.184C315.066 441.588 313.389 441.864 311.688 442.012C309.987 442.16 308.31 442.451 306.656 442.886C305.003 443.32 303.324 443.565 301.618 443.622C299.911 443.679 298.214 443.798 296.525 443.978C294.836 444.157 293.148 444.37 291.46 444.616C289.772 444.862 288.077 444.964 286.373 444.922C284.669 444.881 282.968 444.927 281.268 445.061C279.569 445.195 277.869 445.208 276.17 445.101C274.47 444.994 272.772 444.88 271.076 444.759C269.38 444.637 267.686 444.502 265.994 444.354C264.302 444.205 262.607 444.086 260.909 443.994C259.212 443.903 257.515 443.792 255.819 443.66C254.122 443.529 252.438 443.303 250.766 442.982C249.095 442.662 247.423 442.352 245.75 442.054C244.078 441.756 242.409 441.439 240.744 441.103C239.079 440.768 237.417 440.415 235.76 440.045C234.103 439.675 232.447 439.303 230.791 438.929C229.135 438.556 227.508 438.08 225.909 437.503C224.31 436.926 223.241 435.879 222.703 434.363C222.165 432.848 222.66 431.785 224.189 431.176C225.718 430.567 227.314 430.079 228.976 429.713C230.639 429.347 232.271 428.871 233.873 428.288C235.475 427.704 237.105 427.219 238.762 426.833C240.419 426.447 242.066 426.023 243.703 425.562C245.339 425.101 246.976 424.639 248.611 424.176C250.247 423.714 251.898 423.305 253.563 422.951C255.229 422.597 256.885 422.206 258.531 421.778C260.177 421.351 261.792 420.819 263.376 420.182C264.959 419.545 266.565 418.984 268.193 418.497C269.821 418.011 271.444 417.508 273.063 416.988C274.681 416.468 276.295 415.935 277.905 415.39C279.514 414.844 281.13 414.314 282.751 413.799C284.373 413.284 285.96 412.676 287.514 411.975C289.067 411.275 290.654 410.663 292.273 410.139C293.892 409.615 295.483 409.017 297.046 408.346C298.609 407.675 300.172 407.006 301.735 406.338C303.298 405.67 304.894 405.08 306.523 404.569C308.151 404.057 309.732 403.433 311.266 402.695C312.799 401.958 314.359 401.28 315.946 400.663C317.532 400.046 319.09 399.365 320.619 398.621C322.149 397.876 323.69 397.156 325.242 396.461C326.793 395.765 328.347 395.073 329.903 394.384C331.458 393.694 332.995 392.965 334.512 392.195C336.029 391.426 337.525 390.616 339.001 389.765C340.477 388.915 341.962 388.086 343.458 387.278C344.954 386.471 346.477 385.715 348.028 385.012C349.578 384.308 351.089 383.53 352.562 382.678C354.034 381.825 355.502 380.966 356.966 380.101C358.43 379.236 359.91 378.4 361.406 377.594C362.903 376.787 364.396 375.975 365.886 375.155C367.376 374.336 368.849 373.488 370.305 372.611C371.761 371.734 373.228 370.875 374.706 370.033C376.183 369.191 377.621 368.285 379.02 367.315C380.418 366.345 381.845 365.421 383.3 364.542C384.755 363.664 386.214 362.791 387.678 361.925C389.142 361.06 390.583 360.158 392.001 359.22C393.42 358.283 394.829 357.332 396.229 356.367C397.629 355.402 399.039 354.451 400.459 353.514C401.879 352.578 403.247 351.568 404.563 350.484C405.879 349.401 407.272 348.425 408.743 347.557C410.213 346.689 411.621 345.737 412.969 344.702C414.316 343.667 415.669 342.638 417.027 341.615C418.385 340.593 419.742 339.568 421.097 338.541C422.452 337.515 423.857 336.562 425.31 335.683C426.763 334.804 428.153 333.879 429.48 332.907C430.807 331.935 432.087 330.986 433.32 330.059C434.553 329.133 435.141 328.642 435.085 328.585C435.029 328.528 435.531 329.1 436.593 330.3Z" stroke="white" stroke-width="3"/>
</svg>
